<svg width="122" height="91" viewBox="0 0 122 91" fill="none" xmlns="http://www.w3.org/2000/svg">
<path d="M1.80952 36.5038L20.0175 45.2746V59.8754C20.0175 61.1033 20.7209 62.2227 21.827 62.7557L56.6604 79.535C57.0931 79.7432 57.5673 79.8514 58.0479 79.8514H63.9012C64.3818 79.8514 64.8558 79.7432 65.289 79.535L100.026 62.8018C100.699 62.477 101.238 61.9271 101.548 61.247C101.591 61.1511 101.633 61.0542 101.675 60.957C101.844 60.56 101.932 60.1326 101.932 59.7012V45.2744L106.898 42.882V62.6811C105.824 63.3975 104.995 64.4709 104.594 65.7781L101.768 74.9861C101.42 76.1216 101.43 77.3196 101.796 78.4496L104.417 86.5261C105.164 88.8297 107.293 90.4275 109.713 90.5019C109.729 90.5024 109.745 90.5027 109.761 90.5029L109.841 90.5042C109.858 90.5044 109.874 90.5044 109.891 90.5044C112.271 90.5044 114.372 89.0737 115.245 86.8591L118.275 79.1678C118.742 77.9818 118.801 76.6552 118.441 75.4324L115.616 65.8405C115.222 64.5031 114.386 63.4051 113.293 62.6772V39.8023L120.19 36.4795C121.297 35.9465 122 34.8272 122 33.5991V31.053C122 29.825 121.297 28.7056 120.19 28.1726L62.3618 0.316698C61.4848 -0.105566 60.4635 -0.105566 59.5868 0.316698L1.80952 28.1483C0.703347 28.681 0 29.8005 0 31.0287V33.6236C0 34.8515 0.703347 35.9708 1.80952 36.5038ZM109.949 82.8587L107.94 76.6687L110.082 69.6877L112.245 77.0291L109.949 82.8587ZM95.5375 57.8668L63.1713 73.4579H58.7776L26.4116 57.8668V48.355L59.587 64.3358C60.0254 64.5471 60.4999 64.6525 60.9746 64.6525C61.4492 64.6525 61.9234 64.5471 62.3621 64.3358L95.5378 48.3553L95.5375 57.8668ZM60.9743 6.74554L114.079 32.3261L97.7706 40.1819C97.6269 40.2274 97.4852 40.2809 97.347 40.3471L60.9743 57.8684L24.6018 40.3471C24.4639 40.2809 24.3222 40.2274 24.1788 40.1819L7.87032 32.3259L60.9743 6.74554Z" fill="white" fill-opacity="0.6"/>
</svg>
