<svg width="40" height="30" viewBox="0 0 40 30" fill="none" xmlns="http://www.w3.org/2000/svg">
<path d="M0.593285 11.9684L6.56312 14.8441V19.6313C6.56312 20.0339 6.79372 20.4009 7.1564 20.5757L18.5772 26.0771C18.719 26.1453 18.8745 26.1808 19.0321 26.1808H20.9512C21.1088 26.1808 21.2642 26.1453 21.4062 26.0771L32.7954 20.5907C33.0162 20.4842 33.1927 20.304 33.2943 20.081C33.3087 20.0495 33.3223 20.0178 33.336 19.9859C33.3916 19.8557 33.4203 19.7156 33.4203 19.5742V14.8441L35.0487 14.0597V20.5512C34.6963 20.7861 34.4247 21.138 34.2931 21.5666L33.3666 24.5856C33.2525 24.9579 33.2556 25.3507 33.3758 25.7212L34.2349 28.3692C34.48 29.1245 35.1779 29.6483 35.9715 29.6727C35.9768 29.6729 35.982 29.673 35.9873 29.6731L36.0135 29.6735C36.0189 29.6736 36.0244 29.6736 36.0299 29.6736C36.8101 29.6736 37.4991 29.2045 37.7851 28.4784L38.7785 25.9566C38.9318 25.5678 38.9512 25.1328 38.833 24.7319L37.9068 21.587C37.7777 21.1486 37.5038 20.7886 37.1451 20.5499V13.0499L39.4067 11.9605C39.7694 11.7857 40 11.4188 40 11.0161V10.1813C40 9.7787 39.7694 9.41166 39.4067 9.23691L20.4465 0.103835C20.1589 -0.0346118 19.8241 -0.0346118 19.5366 0.103835L0.593285 9.22894C0.230606 9.40361 0 9.77065 0 10.1733V11.0241C0 11.4267 0.230606 11.7937 0.593285 11.9684ZM36.0488 27.1668L35.3902 25.1373L36.0926 22.8484L36.8017 25.2554L36.0488 27.1668ZM31.3238 18.9727L20.7119 24.0845H19.2713L8.65953 18.9727V15.8541L19.5367 21.0937C19.6805 21.163 19.836 21.1975 19.9917 21.1975C20.1473 21.1975 20.3028 21.163 20.4466 21.0937L31.3239 15.8542L31.3238 18.9727ZM19.9916 2.21165L37.4029 10.5987L32.0559 13.1744C32.0088 13.1893 31.9623 13.2068 31.9171 13.2286L19.9916 18.9732L8.06616 13.2286C8.02096 13.2068 7.97451 13.1893 7.92746 13.1744L2.58043 10.5987L19.9916 2.21165Z" fill="black"/>
</svg>
